HIERARCHY
ROOT Hips
{
	OFFSET -0.089718 121.760773 1.256875
	CHANNELS 6 Xposition Yposition Zposition Xrotation Yrotation Zrotation 
	JOINT Spine
	{
		OFFSET 0.071961 7.257324 -0.789679
		CHANNELS 3 Xrotation Yrotation Zrotation
		JOINT Spine1
		{
			OFFSET 0.000000 12.508743 -0.658066
			CHANNELS 3 Xrotation Yrotation Zrotation
			JOINT Spine1_split
			{
				OFFSET 0.000000 12.508743 -0.658066
				CHANNELS 3 Xrotation Yrotation Zrotation
				JOINT Spine2
				{
					OFFSET 0.000000 12.508743 -0.658066
					CHANNELS 3 Xrotation Yrotation Zrotation
					JOINT Neck
					{
						OFFSET 0.000000 14.033295 7.520357
						CHANNELS 3 Xrotation Yrotation Zrotation
						JOINT Head
						{
							OFFSET 0.000000 8.198502 5.703135
							CHANNELS 3 Xrotation Yrotation Zrotation
							JOINT HeadTop_End
							{
								OFFSET 0.000000 17.760834 13.332673
								CHANNELS 3 Xrotation Yrotation Zrotation
								End Site
								{
									OFFSET 0.000000 0.000000 0.000000
								}
							}
						}
					}
					JOINT LeftShoulder
					{
						OFFSET 6.292447 5.785309 -0.668987
						CHANNELS 3 Xrotation Yrotation Zrotation
						JOINT LeftShoulder_split
						{
							OFFSET 6.292447 5.785309 -0.668987
							CHANNELS 3 Xrotation Yrotation Zrotation
							JOINT LeftArm
							{
								OFFSET 13.906050 -6.096512 1.965051
								CHANNELS 3 Xrotation Yrotation Zrotation
								JOINT LeftForeArm
								{
									OFFSET 34.136707 -0.070145 0.483191
									CHANNELS 3 Xrotation Yrotation Zrotation
									JOINT LeftHand
									{
										OFFSET 40.956070 -0.000046 0.579759
										CHANNELS 3 Xrotation Yrotation Zrotation
										JOINT LeftHandThumb1
										{
											OFFSET 9.870941 -7.205917 9.687083
											CHANNELS 3 Xrotation Yrotation Zrotation
											JOINT LeftHandThumb2
											{
												OFFSET 1.819832 -1.059479 1.085292
												CHANNELS 3 Xrotation Yrotation Zrotation
												JOINT LeftHandThumb3
												{
													OFFSET 2.094803 -1.219498 1.249332
													CHANNELS 3 Xrotation Yrotation Zrotation
													JOINT LeftHandThumb4
													{
														OFFSET 4.803749 -2.796570 2.864868
														CHANNELS 3 Xrotation Yrotation Zrotation
														End Site
														{
															OFFSET 0.000000 0.000000 0.000000
														}
													}
												}
											}
										}
										JOINT LeftHandIndex1
										{
											OFFSET 18.323029 -0.939438 4.853191
											CHANNELS 3 Xrotation Yrotation Zrotation
											JOINT LeftHandIndex2
											{
												OFFSET 4.710793 -0.000031 0.066666
												CHANNELS 3 Xrotation Yrotation Zrotation
												JOINT LeftHandIndex3
												{
													OFFSET 2.876877 -0.226105 0.045824
													CHANNELS 3 Xrotation Yrotation Zrotation
													JOINT LeftHandIndex4
													{
														OFFSET 6.145302 -0.000046 0.087005
														CHANNELS 3 Xrotation Yrotation Zrotation
														End Site
														{
															OFFSET 0.000000 0.000000 0.000000
														}
													}
												}
											}
										}
										JOINT LeftHandMiddle1
										{
											OFFSET 18.011223 0.000015 0.254925
											CHANNELS 3 Xrotation Yrotation Zrotation
											JOINT LeftHandMiddle2
											{
												OFFSET 4.946175 -0.000015 0.070024
												CHANNELS 3 Xrotation Yrotation Zrotation
												JOINT LeftHandMiddle3
												{
													OFFSET 3.341888 0.000015 0.047322
													CHANNELS 3 Xrotation Yrotation Zrotation
													JOINT LeftHandMiddle4
													{
														OFFSET 4.461334 -0.000031 0.063172
														CHANNELS 3 Xrotation Yrotation Zrotation
														End Site
														{
															OFFSET 0.000000 0.000000 0.000000
														}
													}
												}
											}
										}
										JOINT LeftHandRing1
										{
											OFFSET 15.906670 -0.087616 -3.901815
											CHANNELS 3 Xrotation Yrotation Zrotation
											JOINT LeftHandRing2
											{
												OFFSET 3.526680 -0.000031 0.049965
												CHANNELS 3 Xrotation Yrotation Zrotation
												JOINT LeftHandRing3
												{
													OFFSET 2.960831 -0.000015 0.041910
													CHANNELS 3 Xrotation Yrotation Zrotation
													JOINT LeftHandRing4
													{
														OFFSET 4.926727 -0.000031 0.069761
														CHANNELS 3 Xrotation Yrotation Zrotation
														End Site
														{
															OFFSET 0.000000 0.000000 0.000000
														}
													}
												}
											}
										}
										JOINT LeftHandPinky1
										{
											OFFSET 12.886803 -0.806839 -6.620516
											CHANNELS 3 Xrotation Yrotation Zrotation
											JOINT LeftHandPinky2
											{
												OFFSET 3.326813 0.000000 0.047121
												CHANNELS 3 Xrotation Yrotation Zrotation
												JOINT LeftHandPinky3
												{
													OFFSET 3.014618 -0.000031 0.042702
													CHANNELS 3 Xrotation Yrotation Zrotation
													JOINT LeftHandPinky4
													{
														OFFSET 5.847153 0.000031 0.082745
														CHANNELS 3 Xrotation Yrotation Zrotation
														End Site
														{
															OFFSET 0.000000 0.000000 0.000000
														}
													}
												}
											}
										}
									}
								}
							}
						}
					}
					JOINT RightShoulder
					{
						OFFSET -6.292447 5.785309 -0.668987
						CHANNELS 3 Xrotation Yrotation Zrotation
						JOINT RightShoulder_split
						{
							OFFSET -6.292447 5.785309 -0.668987
							CHANNELS 3 Xrotation Yrotation Zrotation
							JOINT RightArm
							{
								OFFSET -13.906046 -6.096527 1.965051
								CHANNELS 3 Xrotation Yrotation Zrotation
								JOINT RightForeArm
								{
									OFFSET -34.136711 -0.070145 0.483195
									CHANNELS 3 Xrotation Yrotation Zrotation
									JOINT RightHand
									{
										OFFSET -40.956062 -0.000031 0.579796
										CHANNELS 3 Xrotation Yrotation Zrotation
										JOINT RightHandThumb1
										{
											OFFSET -9.870895 -7.205978 9.687082
											CHANNELS 3 Xrotation Yrotation Zrotation
											JOINT RightHandThumb2
											{
												OFFSET -1.819832 -1.059479 1.085295
												CHANNELS 3 Xrotation Yrotation Zrotation
												JOINT RightHandThumb3
												{
													OFFSET -2.094826 -1.219513 1.249285
													CHANNELS 3 Xrotation Yrotation Zrotation
													JOINT RightHandThumb4
													{
														OFFSET -4.803757 -2.796585 2.864836
														CHANNELS 3 Xrotation Yrotation Zrotation
														End Site
														{
															OFFSET 0.000000 0.000000 0.000000
														}
													}
												}
											}
										}
										JOINT RightHandIndex1
										{
											OFFSET -18.323013 -0.939499 4.853236
											CHANNELS 3 Xrotation Yrotation Zrotation
											JOINT RightHandIndex2
											{
												OFFSET -4.710800 -0.000031 0.066705
												CHANNELS 3 Xrotation Yrotation Zrotation
												JOINT RightHandIndex3
												{
													OFFSET -2.876869 -0.226089 0.045846
													CHANNELS 3 Xrotation Yrotation Zrotation
													JOINT RightHandIndex4
													{
														OFFSET -6.145317 0.000000 0.087043
														CHANNELS 3 Xrotation Yrotation Zrotation
														End Site
														{
															OFFSET 0.000000 0.000000 0.000000
														}
													}
												}
											}
										}
										JOINT RightHandMiddle1
										{
											OFFSET -18.011230 -0.000031 0.254973
											CHANNELS 3 Xrotation Yrotation Zrotation
											JOINT RightHandMiddle2
											{
												OFFSET -4.946175 0.000000 0.069982
												CHANNELS 3 Xrotation Yrotation Zrotation
												JOINT RightHandMiddle3
												{
													OFFSET -3.341881 0.000000 0.047287
													CHANNELS 3 Xrotation Yrotation Zrotation
													JOINT RightHandMiddle4
													{
														OFFSET -4.461334 -0.000031 0.063116
														CHANNELS 3 Xrotation Yrotation Zrotation
														End Site
														{
															OFFSET 0.000000 0.000000 0.000000
														}
													}
												}
											}
										}
										JOINT RightHandRing1
										{
											OFFSET -15.906685 -0.087631 -3.901773
											CHANNELS 3 Xrotation Yrotation Zrotation
											JOINT RightHandRing2
											{
												OFFSET -3.526680 -0.000046 0.049887
												CHANNELS 3 Xrotation Yrotation Zrotation
												JOINT RightHandRing3
												{
													OFFSET -2.960831 0.000015 0.041926
													CHANNELS 3 Xrotation Yrotation Zrotation
													JOINT RightHandRing4
													{
														OFFSET -4.926727 -0.000061 0.069777
														CHANNELS 3 Xrotation Yrotation Zrotation
														End Site
														{
															OFFSET 0.000000 0.000000 0.000000
														}
													}
												}
											}
										}
										JOINT RightHandPinky1
										{
											OFFSET -12.886818 -0.806839 -6.620485
											CHANNELS 3 Xrotation Yrotation Zrotation
											JOINT RightHandPinky2
											{
												OFFSET -3.326813 -0.000015 0.047130
												CHANNELS 3 Xrotation Yrotation Zrotation
												JOINT RightHandPinky3
												{
													OFFSET -3.014618 0.000000 0.042665
													CHANNELS 3 Xrotation Yrotation Zrotation
													JOINT RightHandPinky4
													{
														OFFSET -5.847153 -0.000031 0.082798
														CHANNELS 3 Xrotation Yrotation Zrotation
														End Site
														{
															OFFSET 0.000000 0.000000 0.000000
														}
													}
												}
											}
										}
									}
								}
							}
						}
					}
				}
			}
		}
	}
	JOINT LeftUpLeg
	{
		OFFSET 13.026871 -6.336296 -1.092769
		CHANNELS 3 Xrotation Yrotation Zrotation
		JOINT LeftLeg
		{
			OFFSET 0.531735 -46.096748 9.782727
			CHANNELS 3 Xrotation Yrotation Zrotation
			JOINT LeftFoot
			{
				OFFSET -0.516061 -53.427502 -12.948194
				CHANNELS 3 Xrotation Yrotation Zrotation
				JOINT LeftToeBase
				{
					OFFSET 0.192221 -14.009666 16.364061
					CHANNELS 3 Xrotation Yrotation Zrotation
					JOINT LeftToe_End
					{
						OFFSET -1.784717 -0.561736 9.474806
						CHANNELS 3 Xrotation Yrotation Zrotation
						End Site
						{
							OFFSET 0.000000 0.000000 0.000000
						}
					}
				}
			}
		}
	}
	JOINT RightUpLeg
	{
		OFFSET -12.882952 -6.336288 -1.092769
		CHANNELS 3 Xrotation Yrotation Zrotation
		JOINT RightLeg
		{
			OFFSET -0.517510 -46.096909 9.782776
			CHANNELS 3 Xrotation Yrotation Zrotation
			JOINT RightFoot
			{
				OFFSET 0.532756 -53.427311 -12.948288
				CHANNELS 3 Xrotation Yrotation Zrotation
				JOINT RightToeBase
				{
					OFFSET -0.192224 -14.009682 16.364050
					CHANNELS 3 Xrotation Yrotation Zrotation
					JOINT RightToe_End
					{
						OFFSET 1.784716 -0.561743 9.474806
						CHANNELS 3 Xrotation Yrotation Zrotation
						End Site
						{
							OFFSET 0.000000 0.000000 0.000000
						}
					}
				}
			}
		}
	}
}
MOTION
Frames: 5
Frame Time: 0.016667
-0.381079 107.944023 -0.454194 -6.104421 -43.212735 -4.140710 5.827676 4.830826 -1.148319 11.839512 9.031701 -3.079605 0.000000 0.000000 0.000000 11.839517 9.031704 -3.079603 -4.303141 -1.284327 0.197018 -6.271517 20.437787 -0.378348 0.000001 -0.000000 0.000000 1.386277 -0.696145 -7.870340 0.000000 0.000000 0.000000 -13.534617 2.761701 -63.202452 9.774238 -47.537242 5.870885 15.714409 0.841159 19.022169 9.321864 4.907053 -5.436310 -0.357191 0.037156 0.769336 -0.000163 0.000438 0.000686 -0.000000 -0.000001 -0.000001 -0.851707 -6.968000 -3.840388 0.250764 0.943836 -11.918841 0.059599 -0.103151 -4.492644 0.000002 -0.000000 0.000001 2.133027 9.715916 -14.507926 -0.112748 -1.532298 -21.883429 -0.000008 0.000723 -0.000004 0.000001 0.000000 -0.000001 3.048169 14.896590 -31.365646 -0.127795 -2.712704 -32.005467 -0.000006 0.000921 0.000003 -0.000001 0.000001 0.000000 4.665109 18.477870 -35.017577 -0.142212 -5.826405 -39.343331 0.000002 -0.001197 0.000000 -0.000000 -0.000001 0.000000 1.402685 9.461286 9.780708 0.000000 0.000000 0.000000 2.001278 -24.668307 60.748584 -6.694580 41.847350 8.220990 6.189928 12.289819 11.595829 -8.804936 -4.985835 -0.198088 7.759577 -19.213445 -3.047954 -0.000566 0.000691 -0.000270 0.000001 0.000000 -0.000000 -1.005281 -1.228384 4.537374 0.333929 -1.254238 12.436011 0.059589 0.103156 4.492663 0.000001 -0.000001 -0.000000 -0.485040 -2.932058 12.735838 -0.224588 1.819981 30.577985 -0.000003 0.000557 0.000008 -0.000000 -0.000001 0.000001 2.715193 -7.433052 21.739370 -0.473482 3.808219 37.420018 -0.000020 -0.000925 -0.001158 -0.000000 -0.000001 -0.000002 3.832137 -10.078006 24.296550 -0.885912 7.939584 41.057739 -0.000000 0.000219 -0.000003 -0.000000 0.000001 0.000001 -28.118697 5.789003 13.194185 32.822518 -13.419640 -0.039633 -2.036525 0.426720 -7.876117 -2.319081 -3.208633 0.802957 -0.000000 -0.000001 -0.000000 -3.989969 -13.279080 -17.004362 31.803014 -8.622979 -0.378490 -19.544607 -4.349492 18.458281 -1.786608 -0.361813 0.339080 -0.000000 0.000001 0.000000 
-0.262722 107.991997 -0.455034 -5.626585 -43.238680 -3.988486 5.809189 4.714625 -1.136110 11.799048 8.799396 -3.072767 0.000000 0.000000 0.000000 11.799042 8.799399 -3.072768 -4.422131 -1.092332 0.277849 -5.829496 20.627344 -0.313116 0.000001 0.000000 0.000000 1.383090 -0.397814 -7.915681 0.000000 0.000000 0.000000 -13.307240 3.107910 -62.701376 9.826656 -48.196694 5.976546 15.575674 0.887036 18.524477 9.008825 4.702461 -5.394446 -0.340893 0.083588 0.783718 -0.000161 0.000437 0.000685 0.000001 -0.000001 -0.000003 -0.866742 -6.917699 -3.954988 0.249722 0.937515 -11.972927 0.059598 -0.103150 -4.492646 0.000001 -0.000001 -0.000001 2.100593 9.583299 -14.521679 -0.110361 -1.520591 -21.770326 -0.000007 0.000721 -0.000004 0.000003 0.000001 0.000000 2.993452 14.807326 -31.204918 -0.122249 -2.700950 -31.785969 -0.000005 0.000921 0.000004 -0.000000 0.000000 0.000000 4.615735 18.451556 -34.738298 -0.142092 -5.822227 -39.154025 -0.000000 -0.001196 0.000003 0.000001 0.000000 0.000000 1.380349 9.243845 9.857589 0.000000 0.000000 0.000000 1.529909 -23.682129 59.786053 -6.030412 41.840332 8.576357 5.672049 12.196407 11.204472 -8.891445 -4.795225 -0.264872 7.661295 -18.986669 -3.043489 -0.000565 0.000692 -0.000271 -0.000000 0.000001 0.000000 -1.021778 -1.155214 4.621096 0.333561 -1.251457 12.464840 0.059591 0.103157 4.492662 0.000001 -0.000001 -0.000000 -0.491926 -2.900433 12.759551 -0.218850 1.798723 30.322594 -0.000003 0.000555 0.000008 0.000002 -0.000000 0.000001 2.719992 -7.448770 21.703934 -0.458538 3.785271 37.103353 -0.000017 -0.000925 -0.001155 -0.000000 -0.000001 0.000001 3.868729 -10.161733 24.167135 -0.877026 7.924318 40.820120 -0.000001 0.000219 -0.000003 0.000000 -0.000000 -0.000001 -28.461499 5.501329 13.219788 32.766887 -13.191470 0.007817 -1.949916 0.440585 -7.932653 -2.317327 -3.185409 0.758572 0.000000 0.000001 0.000000 -4.222076 -13.039256 -16.770157 31.649573 -8.889768 -0.376619 -19.363009 -4.365617 18.500261 -1.690331 -0.303033 0.336895 -0.000000 -0.000001 -0.000000 
0.101122 107.732109 -0.569955 -4.804698 -43.348059 -3.460308 5.833700 4.516105 -1.148662 11.833213 8.390637 -3.031209 0.000000 0.000000 0.000000 11.833217 8.390645 -3.031210 -4.921770 -0.745159 0.377359 -5.471393 20.932035 -0.687780 -0.000000 -0.000000 0.000000 1.353756 -0.084323 -8.103478 0.000000 0.000000 0.000000 -13.001902 3.854946 -61.981132 9.639402 -49.816879 6.693980 15.329535 1.058705 17.645249 8.228709 4.134338 -5.407136 -0.313788 0.168614 0.813781 -0.000164 0.000436 0.000685 -0.000003 0.000001 0.000000 -0.912902 -6.818824 -4.248288 0.246719 0.919819 -12.124808 0.059598 -0.103152 -4.492646 0.000001 -0.000001 0.000001 2.024251 9.268877 -14.578678 -0.105403 -1.495478 -21.528445 -0.000005 0.000721 -0.000003 -0.000001 0.000001 -0.000001 2.875333 14.599195 -30.854061 -0.110111 -2.674499 -31.293867 -0.000007 0.000921 0.000004 0.000002 -0.000000 -0.000001 4.523073 18.400764 -34.113230 -0.141899 -5.812945 -38.733098 0.000001 -0.001196 0.000000 0.000003 0.000000 -0.000001 1.366457 8.740154 9.878193 0.000000 0.000000 0.000000 0.948913 -22.520030 58.345962 -5.026163 43.027265 8.353365 5.365190 11.538388 11.030215 -9.145698 -4.298843 -0.383400 7.417086 -18.429838 -3.029054 -0.000564 0.000690 -0.000270 0.000000 0.000001 0.000001 -1.070125 -0.958643 4.830960 0.332548 -1.243614 12.547827 0.059590 0.103159 4.492663 -0.000000 -0.000001 0.000001 -0.508121 -2.825162 12.827629 -0.200960 1.750759 29.736840 -0.000002 0.000556 0.000005 0.000000 0.000000 0.000001 2.735439 -7.498113 21.637694 -0.430692 3.730463 36.374036 -0.000018 -0.000926 -0.001162 -0.000000 -0.000001 0.000000 3.973098 -10.381420 23.883843 -0.856865 7.889113 40.276502 -0.000001 0.000219 0.000001 -0.000001 -0.000000 -0.000000 -29.443460 4.940380 12.961267 33.258404 -12.625122 0.193964 -1.928755 0.490741 -8.083091 -2.385197 -3.108410 0.875837 -0.000000 0.000003 -0.000000 -5.345420 -12.459223 -16.898376 32.373768 -9.163903 -0.312136 -19.384017 -4.445634 18.642072 -1.555698 -0.219030 0.330479 0.000000 -0.000002 -0.000000 
0.740903 107.044113 -0.805908 -3.499518 -43.607910 -2.516627 5.895903 4.281628 -1.181255 11.935587 7.898664 -2.958464 0.000000 0.000000 0.000000 11.935589 7.898657 -2.958462 -5.669656 -0.289492 0.470746 -5.266484 21.333567 -1.343459 0.000000 0.000000 0.000000 1.309652 0.214989 -8.402909 0.000000 0.000000 0.000000 -12.624720 4.862923 -61.207279 9.296768 -52.107773 7.751691 15.057908 1.144865 16.780612 7.117688 3.246056 -5.561425 -0.289596 0.256986 0.850412 -0.000165 0.000435 0.000682 -0.000002 -0.000001 -0.000003 -0.989184 -6.705081 -4.678104 0.242118 0.892172 -12.361579 0.059599 -0.103152 -4.492646 -0.000003 -0.000000 0.000001 1.915382 8.835749 -14.685962 -0.099214 -1.464064 -21.225014 -0.000008 0.000722 -0.000004 -0.000002 0.000001 -0.000001 2.728966 14.314827 -30.405021 -0.098613 -2.638647 -30.647547 -0.000006 0.000921 0.000002 0.000001 -0.000000 -0.000000 4.428181 18.341138 -33.294478 -0.141713 -5.800876 -38.184152 0.000003 -0.001196 0.000004 -0.000004 0.000000 0.000002 1.342450 8.063062 9.852570 0.000000 0.000000 0.000000 0.373183 -21.388242 56.704879 -3.796309 45.171436 7.678773 5.326744 10.694476 10.765627 -9.548604 -3.561678 -0.494885 7.070725 -17.637358 -3.004443 -0.000566 0.000691 -0.000270 0.000000 0.000000 -0.000000 -1.148872 -0.661461 5.134022 0.330875 -1.231253 12.678787 0.059591 0.103156 4.492662 -0.000000 -0.000001 0.000000 -0.536371 -2.722013 12.937498 -0.177690 1.686044 28.950638 -0.000003 0.000558 0.000008 0.000001 0.000002 0.000002 2.761125 -7.580111 21.566426 -0.394230 3.656004 35.391049 -0.000019 -0.000925 -0.001151 -0.000000 -0.000001 0.000002 4.135400 -10.710000 23.520047 -0.830347 7.841604 39.548291 0.000001 0.000218 -0.000000 0.000000 0.000001 -0.000001 -31.383534 4.200736 12.607691 34.538761 -11.822339 0.403005 -2.035432 0.544920 -8.223084 -2.029868 -2.962320 0.146338 0.000000 -0.000000 0.000000 -7.603058 -11.508913 -17.389989 34.191363 -9.338756 -0.155466 -19.679423 -4.568613 18.865549 -1.460759 -0.199687 0.313507 -0.000000 0.000000 0.000000 
1.603913 105.842140 -1.127094 -1.576490 -44.153348 -1.172945 5.976971 4.063857 -1.217101 12.075095 7.433974 -2.865505 0.000000 0.000000 0.000000 12.075097 7.433983 -2.865509 -6.660613 0.299510 0.536924 -5.325497 21.876561 -2.274110 0.000002 -0.000000 -0.000000 1.252084 0.485968 -8.848493 0.000000 0.000000 0.000000 -12.159271 6.141835 -60.458314 8.820668 -55.144919 9.099981 14.795621 0.941246 16.235162 5.696899 2.050472 -5.811123 -0.261112 0.364957 0.897030 -0.000163 0.000434 0.000687 -0.000002 0.000000 -0.000002 -1.091066 -6.561092 -5.239382 0.236019 0.855709 -12.673748 0.059601 -0.103150 -4.492650 0.000001 -0.000001 0.000003 1.775991 8.275062 -14.831858 -0.091565 -1.423963 -20.838721 -0.000004 0.000721 0.000000 0.000002 0.000002 -0.000001 2.553443 13.943891 -29.832979 -0.084337 -2.592449 -29.818147 -0.000004 0.000920 0.000001 0.000004 -0.000001 -0.000001 4.319370 18.262632 -32.245999 -0.141504 -5.785411 -37.480574 0.000002 -0.001196 0.000003 -0.000002 0.000001 0.000000 1.316229 7.216584 9.779658 0.000000 0.000000 0.000000 -0.099043 -20.446682 54.938650 -2.271793 48.498482 6.425659 5.694502 9.890175 10.098243 -10.068006 -2.594786 -0.613626 6.619623 -16.607680 -2.969448 -0.000567 0.000691 -0.000273 0.000000 0.000000 -0.000000 -1.257196 -0.272482 5.530283 0.328733 -1.215159 12.847722 0.059590 0.103155 4.492662 -0.000000 -0.000001 0.000000 -0.572754 -2.588343 13.082913 -0.149138 1.602339 27.938260 -0.000003 0.000557 0.000008 0.000000 -0.000000 0.000001 2.795024 -7.688834 21.478327 -0.349253 3.559284 34.124178 -0.000018 -0.000925 -0.001155 0.000001 0.000001 0.000001 4.343329 -11.142963 23.055522 -0.797261 7.780105 38.610646 -0.000001 0.000219 0.000002 -0.000000 -0.000001 -0.000001 -34.543081 3.570716 12.616334 36.768063 -11.139823 0.321053 -2.332103 0.591462 -8.108530 -1.746562 -2.795095 -0.395509 0.000000 -0.000001 -0.000000 -11.092150 -10.213371 -18.130590 37.112130 -9.177278 0.130411 -20.281659 -4.723739 19.071908 -1.437056 -0.281966 0.291264 -0.000000 -0.000002 -0.000000 
